<mxfile host="app.diagrams.net" agent="Mozilla/5.0 (Windows NT 10.0; Win64; x64; rv:133.0) Gecko/20100101 Firefox/133.0" version="25.0.3">
  <diagram name="Page-1" id="b2b_XEAhf-Catnh_-P4k">
    <mxGraphModel dx="573" dy="535" grid="1" gridSize="10" guides="1" tooltips="1" connect="1" arrows="1" fold="1" page="1" pageScale="1" pageWidth="850" pageHeight="1100" math="0" shadow="0">
      <root>
        <mxCell id="0" />
        <mxCell id="1" parent="0" />
        <mxCell id="8J7yjBPKbvb0kN_OGgXz-6" value="Lthium&lt;br&gt;Battery Protector" style="rounded=0;whiteSpace=wrap;html=1;" vertex="1" parent="1">
          <mxGeometry x="200" y="234" width="130" height="60" as="geometry" />
        </mxCell>
        <mxCell id="8J7yjBPKbvb0kN_OGgXz-1" value="&lt;h1 align=&quot;center&quot; class=&quot;a-size-large a-spacing-none&quot;&gt;&lt;font style=&quot;font-size: 11px;&quot;&gt;&lt;span class=&quot;a-size-large product-title-word-break&quot; id=&quot;productTitle&quot;&gt;&lt;span style=&quot;font-weight: normal;&quot;&gt;2Sâ€‘4A Lthium Battery Charger Module&lt;/span&gt;&lt;/span&gt;&lt;font&gt;&lt;span class=&quot;a-size-large product-title-word-break&quot; id=&quot;productTitle&quot;&gt;&lt;br&gt;&lt;/span&gt;&lt;/font&gt;&lt;/font&gt;&lt;/h1&gt;" style="rounded=0;whiteSpace=wrap;html=1;align=center;" vertex="1" parent="1">
          <mxGeometry x="10" y="234" width="120" height="60" as="geometry" />
        </mxCell>
        <mxCell id="8J7yjBPKbvb0kN_OGgXz-2" value="&lt;div&gt;Buck Boost Regulator&lt;/div&gt;&lt;div&gt;Step Don Step Up&lt;br&gt;&lt;/div&gt;" style="rounded=0;whiteSpace=wrap;html=1;align=center;" vertex="1" parent="1">
          <mxGeometry x="320" y="354" width="120" height="60" as="geometry" />
        </mxCell>
        <mxCell id="8J7yjBPKbvb0kN_OGgXz-3" value="3.7V&lt;br&gt;Lithium&lt;br&gt;Battery" style="html=1;verticalLabelPosition=bottom;align=center;labelBackgroundColor=#ffffff;verticalAlign=top;strokeWidth=2;strokeColor=#000000;shadow=0;dashed=0;shape=mxgraph.ios7.icons.battery;" vertex="1" parent="1">
          <mxGeometry x="260" y="94" width="30" height="12" as="geometry" />
        </mxCell>
        <mxCell id="8J7yjBPKbvb0kN_OGgXz-8" style="edgeStyle=orthogonalEdgeStyle;rounded=0;orthogonalLoop=1;jettySize=auto;html=1;exitX=0.996;exitY=0.113;exitDx=0;exitDy=0;entryX=1.023;entryY=0.523;entryDx=0;entryDy=0;entryPerimeter=0;endArrow=none;endFill=0;exitPerimeter=0;" edge="1" parent="1" source="8J7yjBPKbvb0kN_OGgXz-6" target="8J7yjBPKbvb0kN_OGgXz-3">
          <mxGeometry relative="1" as="geometry">
            <Array as="points">
              <mxPoint x="380" y="241" />
              <mxPoint x="380" y="100" />
            </Array>
          </mxGeometry>
        </mxCell>
        <mxCell id="8J7yjBPKbvb0kN_OGgXz-9" value="+" style="text;html=1;align=center;verticalAlign=middle;resizable=0;points=[];autosize=1;strokeColor=none;fillColor=none;" vertex="1" parent="1">
          <mxGeometry x="278" y="77" width="30" height="30" as="geometry" />
        </mxCell>
        <mxCell id="8J7yjBPKbvb0kN_OGgXz-10" value="-" style="text;html=1;align=center;verticalAlign=middle;resizable=0;points=[];autosize=1;strokeColor=none;fillColor=none;" vertex="1" parent="1">
          <mxGeometry x="275" y="39" width="30" height="30" as="geometry" />
        </mxCell>
        <mxCell id="8J7yjBPKbvb0kN_OGgXz-12" value="" style="html=1;verticalLabelPosition=bottom;align=center;labelBackgroundColor=#ffffff;verticalAlign=top;strokeWidth=2;strokeColor=#000000;shadow=0;dashed=0;shape=mxgraph.ios7.icons.battery;rotation=-180;" vertex="1" parent="1">
          <mxGeometry x="260" y="60" width="30" height="12" as="geometry" />
        </mxCell>
        <mxCell id="8J7yjBPKbvb0kN_OGgXz-13" value="3.7V&lt;br&gt;Lithium&lt;br&gt;Battery" style="text;html=1;align=center;verticalAlign=middle;resizable=0;points=[];autosize=1;strokeColor=none;fillColor=none;" vertex="1" parent="1">
          <mxGeometry x="245" width="60" height="60" as="geometry" />
        </mxCell>
        <mxCell id="8J7yjBPKbvb0kN_OGgXz-14" value="+" style="text;html=1;align=center;verticalAlign=middle;resizable=0;points=[];autosize=1;strokeColor=none;fillColor=none;" vertex="1" parent="1">
          <mxGeometry x="240" y="42" width="30" height="30" as="geometry" />
        </mxCell>
        <mxCell id="8J7yjBPKbvb0kN_OGgXz-15" value="-" style="text;html=1;align=center;verticalAlign=middle;resizable=0;points=[];autosize=1;strokeColor=none;fillColor=none;" vertex="1" parent="1">
          <mxGeometry x="240" y="77" width="30" height="30" as="geometry" />
        </mxCell>
        <mxCell id="8J7yjBPKbvb0kN_OGgXz-16" style="edgeStyle=orthogonalEdgeStyle;rounded=0;orthogonalLoop=1;jettySize=auto;html=1;endArrow=none;endFill=0;entryX=-0.036;entryY=0.438;entryDx=0;entryDy=0;entryPerimeter=0;" edge="1" parent="1" target="8J7yjBPKbvb0kN_OGgXz-12">
          <mxGeometry relative="1" as="geometry">
            <mxPoint x="310" y="100" as="sourcePoint" />
            <mxPoint x="290.84" y="62.156000000000006" as="targetPoint" />
            <Array as="points">
              <mxPoint x="310" y="67" />
            </Array>
          </mxGeometry>
        </mxCell>
        <mxCell id="8J7yjBPKbvb0kN_OGgXz-18" style="rounded=0;orthogonalLoop=1;jettySize=auto;html=1;endArrow=none;endFill=0;exitX=-0.028;exitY=0.547;exitDx=0;exitDy=0;exitPerimeter=0;edgeStyle=orthogonalEdgeStyle;entryX=1;entryY=1;entryDx=0;entryDy=0;entryPerimeter=0;" edge="1" parent="1" source="8J7yjBPKbvb0kN_OGgXz-3" target="8J7yjBPKbvb0kN_OGgXz-24">
          <mxGeometry relative="1" as="geometry">
            <mxPoint x="250" y="84" as="sourcePoint" />
            <mxPoint x="230" y="101" as="targetPoint" />
            <Array as="points">
              <mxPoint x="230" y="101" />
            </Array>
          </mxGeometry>
        </mxCell>
        <mxCell id="8J7yjBPKbvb0kN_OGgXz-19" style="rounded=0;orthogonalLoop=1;jettySize=auto;html=1;endArrow=none;endFill=0;exitX=0.999;exitY=0.55;exitDx=0;exitDy=0;exitPerimeter=0;edgeStyle=orthogonalEdgeStyle;" edge="1" parent="1" source="8J7yjBPKbvb0kN_OGgXz-12" target="8J7yjBPKbvb0kN_OGgXz-6">
          <mxGeometry relative="1" as="geometry">
            <mxPoint x="269" y="111" as="sourcePoint" />
            <mxPoint x="230" y="66" as="targetPoint" />
            <Array as="points">
              <mxPoint x="220" y="65" />
            </Array>
          </mxGeometry>
        </mxCell>
        <mxCell id="8J7yjBPKbvb0kN_OGgXz-20" value="BM" style="text;html=1;align=center;verticalAlign=middle;resizable=0;points=[];autosize=1;strokeColor=none;fillColor=none;" vertex="1" parent="1">
          <mxGeometry x="325" y="214" width="40" height="30" as="geometry" />
        </mxCell>
        <mxCell id="8J7yjBPKbvb0kN_OGgXz-23" value="B-" style="text;html=1;align=center;verticalAlign=middle;resizable=0;points=[];autosize=1;strokeColor=none;fillColor=none;" vertex="1" parent="1">
          <mxGeometry x="230" y="204" width="40" height="30" as="geometry" />
        </mxCell>
        <mxCell id="8J7yjBPKbvb0kN_OGgXz-24" value="B+" style="text;html=1;align=center;verticalAlign=middle;resizable=0;points=[];autosize=1;strokeColor=none;fillColor=none;" vertex="1" parent="1">
          <mxGeometry x="190" y="204" width="40" height="30" as="geometry" />
        </mxCell>
        <mxCell id="8J7yjBPKbvb0kN_OGgXz-25" value="P+" style="text;html=1;align=center;verticalAlign=middle;resizable=0;points=[];autosize=1;strokeColor=none;fillColor=none;" vertex="1" parent="1">
          <mxGeometry x="160" y="234" width="40" height="30" as="geometry" />
        </mxCell>
        <mxCell id="8J7yjBPKbvb0kN_OGgXz-26" value="P-" style="text;html=1;align=center;verticalAlign=middle;resizable=0;points=[];autosize=1;strokeColor=none;fillColor=none;" vertex="1" parent="1">
          <mxGeometry x="165" y="264" width="30" height="30" as="geometry" />
        </mxCell>
        <mxCell id="8J7yjBPKbvb0kN_OGgXz-27" value="" style="endArrow=none;html=1;rounded=0;exitX=1.005;exitY=0.383;exitDx=0;exitDy=0;exitPerimeter=0;entryX=-0.005;entryY=0.383;entryDx=0;entryDy=0;entryPerimeter=0;" edge="1" parent="1" source="8J7yjBPKbvb0kN_OGgXz-1" target="8J7yjBPKbvb0kN_OGgXz-6">
          <mxGeometry width="50" height="50" relative="1" as="geometry">
            <mxPoint x="300" y="304" as="sourcePoint" />
            <mxPoint x="350" y="254" as="targetPoint" />
          </mxGeometry>
        </mxCell>
        <mxCell id="8J7yjBPKbvb0kN_OGgXz-28" value="" style="endArrow=none;html=1;rounded=0;exitX=0.998;exitY=0.89;exitDx=0;exitDy=0;exitPerimeter=0;entryX=0.002;entryY=0.883;entryDx=0;entryDy=0;entryPerimeter=0;" edge="1" parent="1" source="8J7yjBPKbvb0kN_OGgXz-1" target="8J7yjBPKbvb0kN_OGgXz-6">
          <mxGeometry width="50" height="50" relative="1" as="geometry">
            <mxPoint x="141" y="267" as="sourcePoint" />
            <mxPoint x="209" y="267" as="targetPoint" />
          </mxGeometry>
        </mxCell>
        <mxCell id="8J7yjBPKbvb0kN_OGgXz-29" value="" style="html=1;shape=mxgraph.electrical.electro-mechanical.switchDisconnector;aspect=fixed;elSwitchState=off;" vertex="1" parent="1">
          <mxGeometry x="212.5" y="364" width="75" height="20" as="geometry" />
        </mxCell>
        <mxCell id="8J7yjBPKbvb0kN_OGgXz-30" value="" style="endArrow=none;html=1;rounded=0;edgeStyle=orthogonalEdgeStyle;exitX=-0.002;exitY=0.884;exitDx=0;exitDy=0;exitPerimeter=0;" edge="1" parent="1" source="8J7yjBPKbvb0kN_OGgXz-2">
          <mxGeometry width="50" height="50" relative="1" as="geometry">
            <mxPoint x="290" y="407" as="sourcePoint" />
            <mxPoint x="150" y="287" as="targetPoint" />
          </mxGeometry>
        </mxCell>
        <mxCell id="8J7yjBPKbvb0kN_OGgXz-31" value="" style="endArrow=none;html=1;rounded=0;edgeStyle=orthogonalEdgeStyle;exitX=0;exitY=0.84;exitDx=0;exitDy=0;" edge="1" parent="1" source="8J7yjBPKbvb0kN_OGgXz-29">
          <mxGeometry width="50" height="50" relative="1" as="geometry">
            <mxPoint x="160" y="384" as="sourcePoint" />
            <mxPoint x="160" y="257" as="targetPoint" />
          </mxGeometry>
        </mxCell>
        <mxCell id="8J7yjBPKbvb0kN_OGgXz-33" value="7.4V-5.6V" style="text;html=1;align=center;verticalAlign=middle;resizable=0;points=[];autosize=1;strokeColor=none;fillColor=none;" vertex="1" parent="1">
          <mxGeometry x="160" y="354" width="80" height="30" as="geometry" />
        </mxCell>
        <mxCell id="8J7yjBPKbvb0kN_OGgXz-34" value="&lt;div&gt;6.5V&lt;/div&gt;" style="text;html=1;align=center;verticalAlign=middle;resizable=0;points=[];autosize=1;strokeColor=none;fillColor=none;" vertex="1" parent="1">
          <mxGeometry x="340" y="444" width="50" height="30" as="geometry" />
        </mxCell>
        <mxCell id="8J7yjBPKbvb0kN_OGgXz-35" value="-" style="text;html=1;align=center;verticalAlign=middle;resizable=0;points=[];autosize=1;strokeColor=none;fillColor=none;" vertex="1" parent="1">
          <mxGeometry x="295" y="402" width="30" height="30" as="geometry" />
        </mxCell>
        <mxCell id="8J7yjBPKbvb0kN_OGgXz-36" value="+" style="text;html=1;align=center;verticalAlign=middle;resizable=0;points=[];autosize=1;strokeColor=none;fillColor=none;" vertex="1" parent="1">
          <mxGeometry x="295" y="354" width="30" height="30" as="geometry" />
        </mxCell>
        <mxCell id="8J7yjBPKbvb0kN_OGgXz-37" value="" style="endArrow=none;html=1;rounded=0;entryX=1;entryY=0.84;entryDx=0;entryDy=0;exitX=0.009;exitY=0.439;exitDx=0;exitDy=0;exitPerimeter=0;" edge="1" parent="1" source="8J7yjBPKbvb0kN_OGgXz-2" target="8J7yjBPKbvb0kN_OGgXz-29">
          <mxGeometry width="50" height="50" relative="1" as="geometry">
            <mxPoint x="270" y="424" as="sourcePoint" />
            <mxPoint x="320" y="374" as="targetPoint" />
          </mxGeometry>
        </mxCell>
        <mxCell id="8J7yjBPKbvb0kN_OGgXz-38" value="" style="endArrow=none;html=1;rounded=0;entryX=0.25;entryY=1;entryDx=0;entryDy=0;exitX=0;exitY=0.5;exitDx=0;exitDy=0;exitPerimeter=0;" edge="1" parent="1" source="8J7yjBPKbvb0kN_OGgXz-92" target="8J7yjBPKbvb0kN_OGgXz-2">
          <mxGeometry width="50" height="50" relative="1" as="geometry">
            <mxPoint x="350" y="484" as="sourcePoint" />
            <mxPoint x="410" y="394" as="targetPoint" />
          </mxGeometry>
        </mxCell>
        <mxCell id="8J7yjBPKbvb0kN_OGgXz-39" value="+" style="text;html=1;align=center;verticalAlign=middle;resizable=0;points=[];autosize=1;strokeColor=none;fillColor=none;" vertex="1" parent="1">
          <mxGeometry x="345" y="422" width="30" height="30" as="geometry" />
        </mxCell>
        <mxCell id="8J7yjBPKbvb0kN_OGgXz-40" value="" style="endArrow=none;html=1;rounded=0;entryX=0.25;entryY=1;entryDx=0;entryDy=0;edgeStyle=orthogonalEdgeStyle;exitX=0.328;exitY=0.044;exitDx=0;exitDy=0;exitPerimeter=0;" edge="1" parent="1" source="8J7yjBPKbvb0kN_OGgXz-42">
          <mxGeometry width="50" height="50" relative="1" as="geometry">
            <mxPoint x="405" y="484" as="sourcePoint" />
            <mxPoint x="405" y="414" as="targetPoint" />
          </mxGeometry>
        </mxCell>
        <mxCell id="8J7yjBPKbvb0kN_OGgXz-41" value="-" style="text;html=1;align=center;verticalAlign=middle;resizable=0;points=[];autosize=1;strokeColor=none;fillColor=none;" vertex="1" parent="1">
          <mxGeometry x="405" y="422" width="30" height="30" as="geometry" />
        </mxCell>
        <mxCell id="8J7yjBPKbvb0kN_OGgXz-42" value="Arduino Uno R4" style="rounded=0;whiteSpace=wrap;html=1;align=center;" vertex="1" parent="1">
          <mxGeometry x="320" y="544" width="120" height="60" as="geometry" />
        </mxCell>
        <mxCell id="8J7yjBPKbvb0kN_OGgXz-43" value="&lt;font style=&quot;font-size: 6px;&quot;&gt;GND&lt;/font&gt;" style="text;html=1;align=center;verticalAlign=middle;resizable=0;points=[];autosize=1;strokeColor=none;fillColor=none;" vertex="1" parent="1">
          <mxGeometry x="348" y="520" width="40" height="30" as="geometry" />
        </mxCell>
        <mxCell id="8J7yjBPKbvb0kN_OGgXz-44" value="&lt;font style=&quot;font-size: 6px;&quot;&gt;Vin&lt;/font&gt;" style="text;html=1;align=center;verticalAlign=middle;resizable=0;points=[];autosize=1;strokeColor=none;fillColor=none;" vertex="1" parent="1">
          <mxGeometry x="325" y="518" width="30" height="30" as="geometry" />
        </mxCell>
        <mxCell id="8J7yjBPKbvb0kN_OGgXz-45" value="" style="endArrow=none;html=1;rounded=0;edgeStyle=orthogonalEdgeStyle;exitX=1;exitY=0.5;exitDx=0;exitDy=0;" edge="1" parent="1" source="8J7yjBPKbvb0kN_OGgXz-75">
          <mxGeometry width="50" height="50" relative="1" as="geometry">
            <mxPoint x="130" y="490" as="sourcePoint" />
            <mxPoint x="350" y="494" as="targetPoint" />
            <Array as="points">
              <mxPoint x="73" y="450" />
              <mxPoint x="241" y="450" />
              <mxPoint x="241" y="494" />
            </Array>
          </mxGeometry>
        </mxCell>
        <mxCell id="8J7yjBPKbvb0kN_OGgXz-46" value="" style="endArrow=none;html=1;rounded=0;edgeStyle=orthogonalEdgeStyle;exitX=0.178;exitY=1.022;exitDx=0;exitDy=0;exitPerimeter=0;" edge="1" parent="1" source="8J7yjBPKbvb0kN_OGgXz-82">
          <mxGeometry width="50" height="50" relative="1" as="geometry">
            <mxPoint x="280" y="504" as="sourcePoint" />
            <mxPoint x="360" y="500" as="targetPoint" />
            <Array as="points">
              <mxPoint x="280" y="539" />
              <mxPoint x="280" y="500" />
              <mxPoint x="360" y="500" />
            </Array>
          </mxGeometry>
        </mxCell>
        <mxCell id="8J7yjBPKbvb0kN_OGgXz-49" value="" style="html=1;shape=mxgraph.electrical.electro-mechanical.pushbutton;aspect=fixed;elSwitchState=off;" vertex="1" parent="1">
          <mxGeometry x="342.5" y="684" width="75" height="20" as="geometry" />
        </mxCell>
        <mxCell id="8J7yjBPKbvb0kN_OGgXz-50" value="" style="endArrow=none;html=1;rounded=0;entryX=0.185;entryY=1.012;entryDx=0;entryDy=0;entryPerimeter=0;exitX=0;exitY=0.8;exitDx=0;exitDy=0;" edge="1" parent="1" source="8J7yjBPKbvb0kN_OGgXz-49" target="8J7yjBPKbvb0kN_OGgXz-42">
          <mxGeometry width="50" height="50" relative="1" as="geometry">
            <mxPoint x="340" y="724" as="sourcePoint" />
            <mxPoint x="390" y="674" as="targetPoint" />
          </mxGeometry>
        </mxCell>
        <mxCell id="8J7yjBPKbvb0kN_OGgXz-51" value="" style="endArrow=none;html=1;rounded=0;exitX=1;exitY=0.8;exitDx=0;exitDy=0;entryX=0.81;entryY=1.025;entryDx=0;entryDy=0;entryPerimeter=0;" edge="1" parent="1" source="8J7yjBPKbvb0kN_OGgXz-49" target="8J7yjBPKbvb0kN_OGgXz-42">
          <mxGeometry width="50" height="50" relative="1" as="geometry">
            <mxPoint x="353" y="710" as="sourcePoint" />
            <mxPoint x="352" y="615" as="targetPoint" />
          </mxGeometry>
        </mxCell>
        <mxCell id="8J7yjBPKbvb0kN_OGgXz-52" value="&lt;font style=&quot;font-size: 6px;&quot;&gt;3&lt;/font&gt;" style="text;html=1;align=center;verticalAlign=middle;resizable=0;points=[];autosize=1;strokeColor=none;fillColor=none;" vertex="1" parent="1">
          <mxGeometry x="335" y="594" width="30" height="30" as="geometry" />
        </mxCell>
        <mxCell id="8J7yjBPKbvb0kN_OGgXz-53" value="&lt;font style=&quot;font-size: 6px;&quot;&gt;GND&lt;/font&gt;" style="text;html=1;align=center;verticalAlign=middle;resizable=0;points=[];autosize=1;strokeColor=none;fillColor=none;" vertex="1" parent="1">
          <mxGeometry x="405" y="594" width="40" height="30" as="geometry" />
        </mxCell>
        <mxCell id="8J7yjBPKbvb0kN_OGgXz-54" value="MP3 Module " style="rounded=0;whiteSpace=wrap;html=1;align=center;" vertex="1" parent="1">
          <mxGeometry x="92.5" y="614" width="120" height="60" as="geometry" />
        </mxCell>
        <mxCell id="8J7yjBPKbvb0kN_OGgXz-56" value="" style="pointerEvents=1;verticalLabelPosition=bottom;shadow=0;dashed=0;align=center;html=1;verticalAlign=top;shape=mxgraph.electrical.electro-mechanical.loudspeaker;rotation=-179;" vertex="1" parent="1">
          <mxGeometry y="614" width="25" height="50" as="geometry" />
        </mxCell>
        <mxCell id="8J7yjBPKbvb0kN_OGgXz-57" value="" style="endArrow=none;html=1;rounded=0;exitX=0;exitY=0.6;exitDx=0;exitDy=0;exitPerimeter=0;entryX=0.005;entryY=0.328;entryDx=0;entryDy=0;entryPerimeter=0;" edge="1" parent="1" source="8J7yjBPKbvb0kN_OGgXz-56" target="8J7yjBPKbvb0kN_OGgXz-54">
          <mxGeometry width="50" height="50" relative="1" as="geometry">
            <mxPoint x="130" y="664" as="sourcePoint" />
            <mxPoint x="180" y="614" as="targetPoint" />
          </mxGeometry>
        </mxCell>
        <mxCell id="8J7yjBPKbvb0kN_OGgXz-58" value="" style="endArrow=none;html=1;rounded=0;exitX=0;exitY=0.4;exitDx=0;exitDy=0;exitPerimeter=0;entryX=0;entryY=0.5;entryDx=0;entryDy=0;" edge="1" parent="1" source="8J7yjBPKbvb0kN_OGgXz-56" target="8J7yjBPKbvb0kN_OGgXz-54">
          <mxGeometry width="50" height="50" relative="1" as="geometry">
            <mxPoint x="35" y="644" as="sourcePoint" />
            <mxPoint x="90" y="644" as="targetPoint" />
          </mxGeometry>
        </mxCell>
        <mxCell id="8J7yjBPKbvb0kN_OGgXz-59" value="" style="endArrow=none;html=1;rounded=0;entryX=0;entryY=1;entryDx=0;entryDy=0;exitX=1.003;exitY=0.608;exitDx=0;exitDy=0;edgeStyle=orthogonalEdgeStyle;exitPerimeter=0;" edge="1" parent="1" source="8J7yjBPKbvb0kN_OGgXz-54" target="8J7yjBPKbvb0kN_OGgXz-42">
          <mxGeometry width="50" height="50" relative="1" as="geometry">
            <mxPoint x="353" y="710" as="sourcePoint" />
            <mxPoint x="352" y="615" as="targetPoint" />
          </mxGeometry>
        </mxCell>
        <mxCell id="8J7yjBPKbvb0kN_OGgXz-60" value="" style="endArrow=none;html=1;rounded=0;entryX=0.075;entryY=1.002;entryDx=0;entryDy=0;entryPerimeter=0;exitX=1.007;exitY=0.821;exitDx=0;exitDy=0;edgeStyle=orthogonalEdgeStyle;exitPerimeter=0;" edge="1" parent="1" source="8J7yjBPKbvb0kN_OGgXz-54" target="8J7yjBPKbvb0kN_OGgXz-42">
          <mxGeometry width="50" height="50" relative="1" as="geometry">
            <mxPoint x="223" y="669" as="sourcePoint" />
            <mxPoint x="336" y="614" as="targetPoint" />
          </mxGeometry>
        </mxCell>
        <mxCell id="8J7yjBPKbvb0kN_OGgXz-61" value="&lt;font style=&quot;font-size: 6px;&quot;&gt;0&lt;/font&gt;" style="text;html=1;align=center;verticalAlign=middle;resizable=0;points=[];autosize=1;strokeColor=none;fillColor=none;" vertex="1" parent="1">
          <mxGeometry x="308" y="594" width="30" height="30" as="geometry" />
        </mxCell>
        <mxCell id="8J7yjBPKbvb0kN_OGgXz-63" value="&lt;font style=&quot;font-size: 6px;&quot;&gt;1&lt;/font&gt;" style="text;html=1;align=center;verticalAlign=middle;resizable=0;points=[];autosize=1;strokeColor=none;fillColor=none;" vertex="1" parent="1">
          <mxGeometry x="318" y="594" width="30" height="30" as="geometry" />
        </mxCell>
        <mxCell id="8J7yjBPKbvb0kN_OGgXz-64" value="&lt;font style=&quot;font-size: 6px;&quot;&gt;TX&lt;/font&gt;" style="text;html=1;align=center;verticalAlign=middle;resizable=0;points=[];autosize=1;strokeColor=none;fillColor=none;" vertex="1" parent="1">
          <mxGeometry x="203" y="636" width="30" height="30" as="geometry" />
        </mxCell>
        <mxCell id="8J7yjBPKbvb0kN_OGgXz-65" value="&lt;font style=&quot;font-size: 6px;&quot;&gt;RX&lt;/font&gt;" style="text;html=1;align=center;verticalAlign=middle;resizable=0;points=[];autosize=1;strokeColor=none;fillColor=none;" vertex="1" parent="1">
          <mxGeometry x="203" y="650" width="30" height="30" as="geometry" />
        </mxCell>
        <mxCell id="8J7yjBPKbvb0kN_OGgXz-66" value="" style="endArrow=none;html=1;rounded=0;entryX=0;entryY=0.75;entryDx=0;entryDy=0;exitX=1.002;exitY=0.422;exitDx=0;exitDy=0;edgeStyle=orthogonalEdgeStyle;exitPerimeter=0;" edge="1" parent="1" source="8J7yjBPKbvb0kN_OGgXz-54" target="8J7yjBPKbvb0kN_OGgXz-42">
          <mxGeometry width="50" height="50" relative="1" as="geometry">
            <mxPoint x="223" y="660" as="sourcePoint" />
            <mxPoint x="330" y="614" as="targetPoint" />
            <Array as="points">
              <mxPoint x="266" y="639" />
              <mxPoint x="266" y="589" />
            </Array>
          </mxGeometry>
        </mxCell>
        <mxCell id="8J7yjBPKbvb0kN_OGgXz-67" value="&lt;font style=&quot;font-size: 6px;&quot;&gt;5V&lt;/font&gt;" style="text;html=1;align=center;verticalAlign=middle;resizable=0;points=[];autosize=1;strokeColor=none;fillColor=none;" vertex="1" parent="1">
          <mxGeometry x="203" y="626" width="30" height="30" as="geometry" />
        </mxCell>
        <mxCell id="8J7yjBPKbvb0kN_OGgXz-69" value="" style="endArrow=none;html=1;rounded=0;entryX=0;entryY=0.5;entryDx=0;entryDy=0;edgeStyle=orthogonalEdgeStyle;exitX=1;exitY=0.25;exitDx=0;exitDy=0;" edge="1" parent="1" source="8J7yjBPKbvb0kN_OGgXz-54" target="8J7yjBPKbvb0kN_OGgXz-42">
          <mxGeometry width="50" height="50" relative="1" as="geometry">
            <mxPoint x="230" y="610" as="sourcePoint" />
            <mxPoint x="330" y="599" as="targetPoint" />
            <Array as="points">
              <mxPoint x="230" y="629" />
              <mxPoint x="260" y="630" />
              <mxPoint x="260" y="570" />
              <mxPoint x="320" y="570" />
            </Array>
          </mxGeometry>
        </mxCell>
        <mxCell id="8J7yjBPKbvb0kN_OGgXz-70" value="&lt;font style=&quot;font-size: 6px;&quot;&gt;GND&lt;/font&gt;" style="text;html=1;align=center;verticalAlign=middle;resizable=0;points=[];autosize=1;strokeColor=none;fillColor=none;" vertex="1" parent="1">
          <mxGeometry x="200" y="616" width="40" height="30" as="geometry" />
        </mxCell>
        <mxCell id="8J7yjBPKbvb0kN_OGgXz-72" value="&lt;font style=&quot;font-size: 6px;&quot;&gt;GND&lt;/font&gt;" style="text;html=1;align=center;verticalAlign=middle;resizable=0;points=[];autosize=1;strokeColor=none;fillColor=none;" vertex="1" parent="1">
          <mxGeometry x="290" y="559" width="40" height="30" as="geometry" />
        </mxCell>
        <mxCell id="8J7yjBPKbvb0kN_OGgXz-74" value="&lt;font style=&quot;font-size: 6px;&quot;&gt;5V&lt;/font&gt;" style="text;html=1;align=center;verticalAlign=middle;resizable=0;points=[];autosize=1;strokeColor=none;fillColor=none;" vertex="1" parent="1">
          <mxGeometry x="297" y="576" width="30" height="30" as="geometry" />
        </mxCell>
        <mxCell id="8J7yjBPKbvb0kN_OGgXz-75" value="M" style="verticalLabelPosition=middle;shadow=0;dashed=0;align=center;html=1;verticalAlign=middle;strokeWidth=1;shape=ellipse;aspect=fixed;fontSize=35;" vertex="1" parent="1">
          <mxGeometry x="40" y="432" width="33" height="33" as="geometry" />
        </mxCell>
        <mxCell id="8J7yjBPKbvb0kN_OGgXz-76" value="M" style="verticalLabelPosition=middle;shadow=0;dashed=0;align=center;html=1;verticalAlign=middle;strokeWidth=1;shape=ellipse;aspect=fixed;fontSize=35;" vertex="1" parent="1">
          <mxGeometry x="40" y="511" width="33" height="33" as="geometry" />
        </mxCell>
        <mxCell id="8J7yjBPKbvb0kN_OGgXz-77" value="Head Servo" style="text;html=1;align=center;verticalAlign=middle;resizable=0;points=[];autosize=1;strokeColor=none;fillColor=none;" vertex="1" parent="1">
          <mxGeometry x="12.5" y="407" width="90" height="30" as="geometry" />
        </mxCell>
        <mxCell id="8J7yjBPKbvb0kN_OGgXz-78" value="WingServo" style="text;html=1;align=center;verticalAlign=middle;resizable=0;points=[];autosize=1;strokeColor=none;fillColor=none;" vertex="1" parent="1">
          <mxGeometry x="17.5" y="489" width="80" height="30" as="geometry" />
        </mxCell>
        <mxCell id="8J7yjBPKbvb0kN_OGgXz-81" value="" style="endArrow=none;html=1;rounded=0;edgeStyle=orthogonalEdgeStyle;" edge="1" parent="1">
          <mxGeometry width="50" height="50" relative="1" as="geometry">
            <mxPoint x="73" y="530" as="sourcePoint" />
            <mxPoint x="350" y="494" as="targetPoint" />
            <Array as="points">
              <mxPoint x="73" y="530" />
              <mxPoint x="241" y="530" />
              <mxPoint x="241" y="494" />
            </Array>
          </mxGeometry>
        </mxCell>
        <mxCell id="8J7yjBPKbvb0kN_OGgXz-82" value="+" style="text;html=1;align=center;verticalAlign=middle;resizable=0;points=[];autosize=1;strokeColor=none;fillColor=none;" vertex="1" parent="1">
          <mxGeometry x="65" y="508" width="30" height="30" as="geometry" />
        </mxCell>
        <mxCell id="8J7yjBPKbvb0kN_OGgXz-83" value="+" style="text;html=1;align=center;verticalAlign=middle;resizable=0;points=[];autosize=1;strokeColor=none;fillColor=none;" vertex="1" parent="1">
          <mxGeometry x="66.5" y="430" width="30" height="30" as="geometry" />
        </mxCell>
        <mxCell id="8J7yjBPKbvb0kN_OGgXz-84" value="-" style="text;html=1;align=center;verticalAlign=middle;resizable=0;points=[];autosize=1;strokeColor=none;fillColor=none;" vertex="1" parent="1">
          <mxGeometry x="65" y="519" width="30" height="30" as="geometry" />
        </mxCell>
        <mxCell id="8J7yjBPKbvb0kN_OGgXz-85" value="" style="endArrow=none;html=1;rounded=0;edgeStyle=orthogonalEdgeStyle;exitX=0.959;exitY=0.735;exitDx=0;exitDy=0;exitPerimeter=0;" edge="1" parent="1" source="8J7yjBPKbvb0kN_OGgXz-75">
          <mxGeometry width="50" height="50" relative="1" as="geometry">
            <mxPoint x="120" y="460" as="sourcePoint" />
            <mxPoint x="360" y="500" as="targetPoint" />
            <Array as="points">
              <mxPoint x="280" y="456" />
              <mxPoint x="280" y="500" />
            </Array>
          </mxGeometry>
        </mxCell>
        <mxCell id="8J7yjBPKbvb0kN_OGgXz-86" value="-" style="text;html=1;align=center;verticalAlign=middle;resizable=0;points=[];autosize=1;strokeColor=none;fillColor=none;" vertex="1" parent="1">
          <mxGeometry x="67.5" y="437" width="30" height="30" as="geometry" />
        </mxCell>
        <mxCell id="8J7yjBPKbvb0kN_OGgXz-87" value="" style="endArrow=none;html=1;rounded=0;entryX=0;entryY=0.25;entryDx=0;entryDy=0;exitX=0.5;exitY=1;exitDx=0;exitDy=0;edgeStyle=orthogonalEdgeStyle;" edge="1" parent="1" source="8J7yjBPKbvb0kN_OGgXz-75" target="8J7yjBPKbvb0kN_OGgXz-42">
          <mxGeometry width="50" height="50" relative="1" as="geometry">
            <mxPoint x="190" y="590" as="sourcePoint" />
            <mxPoint x="330" y="584" as="targetPoint" />
            <Array as="points">
              <mxPoint x="57" y="490" />
              <mxPoint x="10" y="490" />
              <mxPoint x="10" y="559" />
            </Array>
          </mxGeometry>
        </mxCell>
        <mxCell id="8J7yjBPKbvb0kN_OGgXz-88" value="" style="endArrow=none;html=1;rounded=0;edgeStyle=orthogonalEdgeStyle;exitX=0.5;exitY=1;exitDx=0;exitDy=0;" edge="1" parent="1" source="8J7yjBPKbvb0kN_OGgXz-76">
          <mxGeometry width="50" height="50" relative="1" as="geometry">
            <mxPoint x="120" y="480" as="sourcePoint" />
            <mxPoint x="320" y="550" as="targetPoint" />
            <Array as="points">
              <mxPoint x="57" y="550" />
              <mxPoint x="320" y="550" />
            </Array>
          </mxGeometry>
        </mxCell>
        <mxCell id="8J7yjBPKbvb0kN_OGgXz-90" value="&lt;font style=&quot;font-size: 6px;&quot;&gt;10&lt;/font&gt;" style="text;html=1;align=center;verticalAlign=middle;resizable=0;points=[];autosize=1;strokeColor=none;fillColor=none;" vertex="1" parent="1">
          <mxGeometry x="55" y="529" width="30" height="30" as="geometry" />
        </mxCell>
        <mxCell id="8J7yjBPKbvb0kN_OGgXz-91" value="&lt;font style=&quot;font-size: 6px;&quot;&gt;11&lt;/font&gt;" style="text;html=1;align=center;verticalAlign=middle;resizable=0;points=[];autosize=1;strokeColor=none;fillColor=none;" vertex="1" parent="1">
          <mxGeometry x="50" y="452" width="30" height="30" as="geometry" />
        </mxCell>
        <mxCell id="8J7yjBPKbvb0kN_OGgXz-93" value="" style="endArrow=none;html=1;rounded=0;entryX=1;entryY=0.5;entryDx=0;entryDy=0;entryPerimeter=0;exitX=0.237;exitY=0.015;exitDx=0;exitDy=0;exitPerimeter=0;" edge="1" parent="1" source="8J7yjBPKbvb0kN_OGgXz-42" target="8J7yjBPKbvb0kN_OGgXz-92">
          <mxGeometry width="50" height="50" relative="1" as="geometry">
            <mxPoint x="350" y="540" as="sourcePoint" />
            <mxPoint x="350" y="414" as="targetPoint" />
          </mxGeometry>
        </mxCell>
        <mxCell id="8J7yjBPKbvb0kN_OGgXz-92" value="" style="pointerEvents=1;fillColor=strokeColor;verticalLabelPosition=bottom;shadow=0;dashed=0;align=center;html=1;verticalAlign=top;shape=mxgraph.electrical.diodes.diode;rotation=90;" vertex="1" parent="1">
          <mxGeometry x="340" y="518" width="16.67" height="10" as="geometry" />
        </mxCell>
      </root>
    </mxGraphModel>
  </diagram>
</mxfile>
